<svg width="512" height="512" viewBox="0 0 512 512" fill="none" xmlns="http://www.w3.org/2000/svg">
<path d="M256 32C218.236 32.0869 181.106 41.7193 148.062 60.002L175.582 79.362L215.615 65.668L240.197 71.288L248.977 121.152L264.077 109.564L305.164 95.518L323.424 123.26L287.604 142.223L265.131 158.375L262.673 180.85L237.741 201.92L230.718 235.984L216.671 237.037L223.694 198.407L170.667 195.6L158.027 214.21L157.927 214.2V240.844L183.751 242.83L207.589 259.715L205.603 285.043L239.373 291.003L239.013 291.763L292.017 261.205L382.897 320.303L362.387 368.851L329.702 389.007L268.559 466.972L255.061 463.127L262.216 365L220.003 322.787L227.856 308.927L202.124 299.445L176.798 268.655L154.945 263.688L116.422 208H112L106.883 234.746L103.243 195.6L108.51 166.453L107.81 143.275L97.247 98.2C55.5151 140.121 32.0598 196.848 32 256C32 379.712 132.288 480 256 480C338.413 479.972 414.155 434.692 453.195 362.113L442.82 298.14L437.2 261.97L403.14 234.578L409.81 196.652L425.613 176.285L463.168 171.235C428.766 87.086 346.913 32.072 256 32ZM345.047 80H368V128L336 144V120.164L345.047 80ZM222.287 246.518L252.137 251.436L247.924 257.756L223.694 252.84L222.287 246.518Z" fill="white"/>
</svg>
