<svg width="256" height="260" viewBox="0 0 256 260" fill="none" xmlns="http://www.w3.org/2000/svg">
<g clip-path="url(#clip0_1117_3346)">
<path d="M239.184 106.203C242.086 97.4644 243.089 88.2071 242.128 79.0496C241.166 69.8921 238.262 61.0453 233.608 53.1C219.452 28.459 191 15.784 163.213 21.74C155.519 13.1819 145.709 6.79883 134.768 3.23187C123.826 -0.33508 112.139 -0.960346 100.88 1.41887C89.6202 3.79809 79.185 9.09803 70.622 16.7864C62.0591 24.4748 55.6698 34.2809 52.096 45.22C43.0737 47.0701 34.5502 50.8246 27.0951 56.2326C19.6401 61.6407 13.4253 68.5777 8.86596 76.58C-5.44404 101.182 -2.19504 132.214 16.899 153.32C13.9864 162.054 12.9726 171.31 13.9254 180.468C14.8782 189.626 17.7757 198.474 22.424 206.422C36.598 231.072 65.068 243.746 92.87 237.782C98.9826 244.665 106.493 250.165 114.901 253.915C123.308 257.664 132.418 259.577 141.624 259.526C170.105 259.551 195.338 241.165 204.038 214.045C213.059 212.192 221.581 208.436 229.035 203.028C236.49 197.62 242.705 190.685 247.267 182.685C261.404 158.127 258.142 127.263 239.184 106.203ZM141.624 242.541C130.256 242.559 119.244 238.574 110.519 231.286L112.054 230.416L163.724 200.591C165.01 199.837 166.078 198.761 166.822 197.47C167.567 196.178 167.963 194.715 167.971 193.224V120.374L189.816 133.01C190.034 133.121 190.186 133.33 190.225 133.573V193.94C190.169 220.758 168.442 242.485 141.624 242.541ZM37.158 197.931C31.4567 188.087 29.4096 176.547 31.377 165.342L32.911 166.263L84.633 196.089C85.9127 196.84 87.3696 197.236 88.8535 197.236C90.3373 197.236 91.7942 196.84 93.074 196.089L156.255 159.664V184.885C156.249 185.016 156.214 185.143 156.152 185.258C156.09 185.374 156.003 185.473 155.897 185.55L103.562 215.734C80.305 229.132 50.592 221.165 37.158 197.931ZM23.549 85.38C29.2898 75.4722 38.3512 67.9152 49.129 64.047V125.437C49.1095 126.92 49.4885 128.382 50.2264 129.668C50.9642 130.955 52.034 132.021 53.324 132.753L116.198 169.025L94.353 181.661C94.2348 181.724 94.1032 181.756 93.9695 181.756C93.8358 181.756 93.7041 181.724 93.586 181.661L41.353 151.53C18.142 138.076 10.182 108.386 23.549 85.125V85.38ZM203.015 127.075L139.935 90.445L161.73 77.86C161.848 77.7972 161.98 77.7644 162.114 77.7644C162.248 77.7644 162.38 77.7972 162.498 77.86L214.731 108.044C222.717 112.652 229.228 119.437 233.503 127.607C237.778 135.777 239.641 144.994 238.873 154.182C238.106 163.371 234.741 172.152 229.171 179.499C223.601 186.847 216.055 192.459 207.415 195.679V134.288C207.37 132.807 206.94 131.364 206.169 130.1C205.398 128.835 204.311 127.793 203.015 127.075ZM224.757 94.385L223.222 93.463L171.603 63.382C170.315 62.6265 168.85 62.2283 167.357 62.2283C165.864 62.2283 164.398 62.6265 163.111 63.382L99.98 99.808V74.587C99.9665 74.4588 99.988 74.3293 100.042 74.2123C100.096 74.0952 100.181 73.9949 100.287 73.922L152.52 43.789C160.525 39.1773 169.678 36.9402 178.908 37.3395C188.138 37.7388 197.064 40.7578 204.641 46.0436C212.218 51.3294 218.134 58.6634 221.696 67.1878C225.258 75.7121 226.32 85.0746 224.756 94.18V94.385H224.757ZM88.061 139.097L66.216 126.512C66.1068 126.446 66.0135 126.357 65.9426 126.251C65.8717 126.145 65.8251 126.024 65.806 125.898V65.685C65.8181 56.4479 68.4596 47.4051 73.4216 39.6139C78.3836 31.8227 85.4611 25.605 93.8265 21.6879C102.192 17.7708 111.5 16.3161 120.661 17.4939C129.823 18.6717 138.46 22.4334 145.563 28.339L144.028 29.209L92.358 59.034C91.0721 59.7883 90.0046 60.8641 89.2601 62.1557C88.5157 63.4473 88.12 64.9103 88.112 66.401L88.061 139.098V139.097ZM99.929 113.517L128.067 97.3L156.255 113.518V145.952L128.169 162.17L99.981 145.952L99.929 113.517Z"/>
</g>
<defs>
<clipPath id="clip0_1117_3346">
<rect width="256" height="260" fill="white"/>
</clipPath>
</defs>
</svg>
